<svg xmlns="http://www.w3.org/2000/svg" width="1600" height="772" viewBox="0 0 1600 772" preserveAspectRatio="xMidYMid meet" role="img" aria-labelledby="title desc" focusable="false" shape-rendering="geometricPrecision" text-rendering="geometricPrecision">
  <title id="title">The composition gap (panel a draft v8)</title>
  <desc id="desc">Three executions of the same workload as aligned timeline lanes. Lane 1, fully-asynchronous RL: fast, but an all-fail group yields no learning signal. Lane 2, synchronous hybrid: a barrier waits for the slowest attempt so every group gets a source-correct decision, but that waiting dominates the lane. Lane 3, combining the two directly: no barrier, so the source decision fires as soon as the visible attempts look all-fail and routes to expert — but a later attempt finishes successfully, past the decision point, proving the group was mixed and should have trained on policy rollouts. The runtime's arrival order rewrote the routing.</desc>
  <metadata>{"figure_id":"figure1a_composition_gap_draft","status":"draft-v8","visible_text_policy":"row names and verdict lines only"}</metadata>
  <defs>
    <style>
      .t { font-family: "Helvetica Neue", "Source Sans 3", "Noto Sans", "Apple SD Gothic Neo", Arial, sans-serif; fill: #1C2738; font-kerning: normal; }
      .panel { font-size: 22px; font-weight: 650; }
      .stage { font-size: 28px; font-weight: 700; letter-spacing: 0.2px; }
      .label { font-size: 24px; font-weight: 600; }
      .small { font-size: 20px; font-weight: 550; }
      .tiny { font-size: 18px; font-weight: 650; }
      .micro { font-size: 16px; font-weight: 650; }
      .muted { fill: #637185; }
      .blue-text { fill: #2456BE; }
      .orange-text { fill: #A65D00; }
      .teal-text { fill: #0D6D64; }
      .coral-text { fill: #B8433D; }
      .dark-text { fill: #4D5B6C; }
      .line { fill: none; stroke-linecap: round; stroke-linejoin: round; }
    </style>
    <marker id="arrow-ink" markerWidth="8" markerHeight="8" refX="7" refY="4" orient="auto" markerUnits="strokeWidth"><path d="M0,0 L8,4 L0,8 Z" fill="#1C2738"/></marker>
    <marker id="arrow-muted" markerWidth="8" markerHeight="8" refX="7" refY="4" orient="auto" markerUnits="strokeWidth"><path d="M0,0 L8,4 L0,8 Z" fill="#8B98A8"/></marker>
    <marker id="arrow-orange-small" markerWidth="9" markerHeight="9" refX="8" refY="4.5" orient="auto" markerUnits="userSpaceOnUse"><path d="M0,0 L9,4.5 L0,9 Z" fill="#D8891C"/></marker>
    <marker id="arrow-blue-small" markerWidth="9" markerHeight="9" refX="8" refY="4.5" orient="auto" markerUnits="userSpaceOnUse"><path d="M0,0 L9,4.5 L0,9 Z" fill="#2F63D8"/></marker>
  </defs>
  <rect width="1600" height="772" fill="#FFFFFF"/>

  <!-- ================= header ================= -->
  <text x="34" y="54" class="t panel muted">(a)</text>
  <text x="78" y="58" class="t stage">The composition gap</text>
  <path d="M78 75 H272" class="line" stroke="#1C2738" stroke-width="4"/>
  <path d="M70 96 H160" class="line" stroke="#8B98A8" stroke-width="2" marker-end="url(#arrow-muted)"/>
  <text x="170" y="101" class="t micro muted">time</text>

  <!-- ================= lane 1: fully-async RL ================= -->
  <g id="lane-async">
    <text x="40" y="134" class="t label">&#9312; Fully-asynchronous RL</text>

    <path d="M70 170 H520 M100 196 H760 M80 222 H640 M130 248 H880" class="line" stroke="#2F63D8" stroke-width="4"/>
    <circle cx="520" cy="170" r="5" fill="#2F63D8"/>
    <circle cx="760" cy="196" r="5" fill="#2F63D8"/>
    <circle cx="640" cy="222" r="5" fill="#2F63D8"/>
    <circle cx="880" cy="248" r="5" fill="#2F63D8"/>

    <text x="1048" y="144" text-anchor="middle" class="t micro muted">some correct</text>
    <rect x="1000" y="152" width="96" height="42" rx="9" fill="#E8F5F2" stroke="#138276" stroke-width="2"/>
    <rect x="1008" y="165" width="16" height="16" rx="4" fill="#2F63D8"/>
    <path d="M1011.5 173.5 L1014.5 176.5 L1020.5 169.5" class="line" stroke="#FFFFFF" stroke-width="2.2"/>
    <rect x="1030" y="165" width="16" height="16" rx="4" fill="#2F63D8"/>
    <path d="M1033 168 L1043 178 M1043 168 L1033 178" class="line" stroke="#FFFFFF" stroke-width="2"/>
    <rect x="1052" y="165" width="16" height="16" rx="4" fill="#2F63D8"/>
    <path d="M1055.5 173.5 L1058.5 176.5 L1064.5 169.5" class="line" stroke="#FFFFFF" stroke-width="2.2"/>
    <rect x="1074" y="165" width="16" height="16" rx="4" fill="#2F63D8"/>
    <path d="M1077 168 L1087 178 M1087 168 L1077 178" class="line" stroke="#FFFFFF" stroke-width="2"/>
    <text x="1111" y="164" text-anchor="middle" class="t micro blue-text">RL</text>
    <path d="M1102 173 H1120" class="line" stroke="#1C2738" stroke-width="2.2" marker-end="url(#arrow-ink)"/>
    <rect x="1126" y="152" width="56" height="42" rx="11" fill="#1C2738"/>
    <circle cx="1154" cy="173" r="7" fill="#FFFFFF"/>

    <rect x="1000" y="206" width="96" height="42" rx="9" fill="#E8F5F2" stroke="#138276" stroke-width="2"/>
    <rect x="1008" y="219" width="16" height="16" rx="4" fill="#2F63D8"/>
    <path d="M1011 222 L1021 232 M1021 222 L1011 232" class="line" stroke="#FFFFFF" stroke-width="2"/>
    <rect x="1030" y="219" width="16" height="16" rx="4" fill="#2F63D8"/>
    <path d="M1033 222 L1043 232 M1043 222 L1033 232" class="line" stroke="#FFFFFF" stroke-width="2"/>
    <rect x="1052" y="219" width="16" height="16" rx="4" fill="#2F63D8"/>
    <path d="M1055 222 L1065 232 M1065 222 L1055 232" class="line" stroke="#FFFFFF" stroke-width="2"/>
    <rect x="1074" y="219" width="16" height="16" rx="4" fill="#2F63D8"/>
    <path d="M1077 222 L1087 232 M1087 222 L1077 232" class="line" stroke="#FFFFFF" stroke-width="2"/>
    <path d="M1102 227 H1120" class="line" stroke="#8B98A8" stroke-width="2.2" stroke-dasharray="6 6"/>
    <rect x="1126" y="206" width="56" height="42" rx="11" fill="none" stroke="#8B98A8" stroke-width="2" stroke-dasharray="6 5"/>
    <text x="1154" y="234" text-anchor="middle" class="t micro muted">&#8711; = 0</text>
    <text x="1048" y="266" text-anchor="middle" class="t micro muted">all fail</text>

    <text x="1300" y="180" class="t small dark-text">&#10003; fast</text>
    <text x="1300" y="212" class="t small coral-text">&#10007; no signal when all fail</text>
  </g>

  <path d="M40 276 H1560" class="line" stroke="#E2E8F0" stroke-width="2"/>

  <!-- ================= lane 2: synchronous hybrid ================= -->
  <g id="lane-sync-hybrid">
    <text x="40" y="314" class="t label">&#9313; Synchronous hybrid post-training</text>

    <rect x="240" y="336" width="212" height="104" fill="#8B98A8" opacity="0.14"/>
    <path d="M70 350 H240 M70 376 H380 M70 402 H300 M70 428 H430" class="line" stroke="#2F63D8" stroke-width="4"/>
    <circle cx="240" cy="350" r="5" fill="#2F63D8"/>
    <circle cx="380" cy="376" r="5" fill="#2F63D8"/>
    <circle cx="300" cy="402" r="5" fill="#2F63D8"/>
    <circle cx="430" cy="428" r="5" fill="#2F63D8"/>
    <path d="M240 350 H448 M380 376 H448 M300 402 H448 M430 428 H448" class="line" stroke="#8B98A8" stroke-width="2.3" stroke-dasharray="6 7" opacity="0.62"/>
    <rect x="452" y="336" width="14" height="104" fill="#8B98A8" opacity="0.45"/>

    <text x="522" y="342" text-anchor="middle" class="t micro muted">some correct</text>
    <rect x="478" y="352" width="88" height="40" rx="9" fill="#E8F5F2" stroke="#138276" stroke-width="2"/>
    <rect x="486" y="364" width="15" height="15" rx="4" fill="#2F63D8"/>
    <path d="M489 372 L492 375 L497.5 368.5" class="line" stroke="#FFFFFF" stroke-width="2.2"/>
    <rect x="506" y="364" width="15" height="15" rx="4" fill="#2F63D8"/>
    <path d="M509 367 L518 376 M518 367 L509 376" class="line" stroke="#FFFFFF" stroke-width="2"/>
    <rect x="526" y="364" width="15" height="15" rx="4" fill="#2F63D8"/>
    <path d="M529 372 L532 375 L537.5 368.5" class="line" stroke="#FFFFFF" stroke-width="2.2"/>
    <rect x="546" y="364" width="15" height="15" rx="4" fill="#2F63D8"/>
    <path d="M549 367 L558 376 M558 367 L549 376" class="line" stroke="#FFFFFF" stroke-width="2"/>
    <path d="M592 358 L606 372 L592 386 L578 372 Z" fill="#138276"/>
    <text x="612" y="346" text-anchor="middle" class="t micro blue-text">RL</text>
    <path d="M607 372 H612" class="line" stroke="#2F63D8" stroke-width="2.4" marker-end="url(#arrow-blue-small)"/>
    <rect x="620" y="352" width="52" height="40" rx="11" fill="#1C2738"/>
    <circle cx="646" cy="372" r="7" fill="#FFFFFF"/>

    <rect x="840" y="336" width="172" height="104" fill="#8B98A8" opacity="0.14"/>
    <path d="M700 350 H840 M700 376 H960 M700 402 H880 M700 428 H990" class="line" stroke="#2F63D8" stroke-width="4"/>
    <circle cx="840" cy="350" r="5" fill="#2F63D8"/>
    <circle cx="960" cy="376" r="5" fill="#2F63D8"/>
    <circle cx="880" cy="402" r="5" fill="#2F63D8"/>
    <circle cx="990" cy="428" r="5" fill="#2F63D8"/>
    <path d="M840 350 H1008 M960 376 H1008 M880 402 H1008 M990 428 H1008" class="line" stroke="#8B98A8" stroke-width="2.3" stroke-dasharray="6 7" opacity="0.62"/>
    <rect x="1012" y="336" width="14" height="104" fill="#8B98A8" opacity="0.45"/>

    <text x="1082" y="342" text-anchor="middle" class="t micro muted">all fail</text>
    <rect x="1038" y="352" width="88" height="40" rx="9" fill="#E8F5F2" stroke="#138276" stroke-width="2"/>
    <rect x="1046" y="364" width="15" height="15" rx="4" fill="#2F63D8"/>
    <path d="M1049 367 L1058 376 M1058 367 L1049 376" class="line" stroke="#FFFFFF" stroke-width="2"/>
    <rect x="1066" y="364" width="15" height="15" rx="4" fill="#2F63D8"/>
    <path d="M1069 367 L1078 376 M1078 367 L1069 376" class="line" stroke="#FFFFFF" stroke-width="2"/>
    <rect x="1086" y="364" width="15" height="15" rx="4" fill="#2F63D8"/>
    <path d="M1089 367 L1098 376 M1098 367 L1089 376" class="line" stroke="#FFFFFF" stroke-width="2"/>
    <rect x="1106" y="364" width="15" height="15" rx="4" fill="#2F63D8"/>
    <path d="M1109 367 L1118 376 M1118 367 L1109 376" class="line" stroke="#FFFFFF" stroke-width="2"/>
    <path d="M1146 358 L1160 372 L1146 386 L1132 372 Z" fill="#138276"/>
    <path d="M1166 372 H1210" class="line" stroke="#D8891C" stroke-width="4"/>
    <circle cx="1210" cy="372" r="5" fill="#D8891C"/>
    <text x="1188" y="406" text-anchor="middle" class="t micro orange-text">expert trajectory</text>
    <path d="M1218 372 H1226" class="line" stroke="#D8891C" stroke-width="2.4" marker-end="url(#arrow-orange-small)"/>
    <text x="1258" y="346" text-anchor="middle" class="t micro orange-text">SFT</text>
    <rect x="1232" y="352" width="52" height="40" rx="11" fill="#1C2738"/>
    <circle cx="1258" cy="372" r="7" fill="#FFFFFF"/>

    <text x="1300" y="360" class="t small dark-text">&#10003; source-correct</text>
    <text x="1300" y="392" class="t small coral-text">&#10007; waits at every step</text>
  </g>

  <path d="M40 456 H1560" class="line" stroke="#E2E8F0" stroke-width="2"/>

  <!-- ================= lane 3: the composition gap (hinge + two horns) ================= -->
  <g id="lane-gap">
    <text x="40" y="500" class="t label">&#9314; Combining &#9312; + &#9313;</text>
    <text x="228" y="500" class="t small muted">&#8212; the group the decision needs has no place in a trajectory stream</text>

    <!-- the hinge: the completed group is the unit the decision needs -->
    <rect x="70" y="596" width="150" height="64" rx="12" fill="#E8F5F2" stroke="#138276" stroke-width="2.5"/>
    <rect x="86" y="617" width="20" height="20" rx="4" fill="#2F63D8"/>
    <rect x="112" y="617" width="20" height="20" rx="4" fill="#2F63D8"/>
    <rect x="138" y="617" width="20" height="20" rx="4" fill="#2F63D8"/>
    <rect x="164" y="617" width="20" height="20" rx="4" fill="#2F63D8"/>
    <text x="145" y="684" text-anchor="middle" class="t small teal-text">group</text>
    <text x="145" y="704" text-anchor="middle" class="t micro muted">decision unit</text>

    <!-- fork: two bad choices -->
    <path d="M224 612 C280 596 300 560 336 552" class="line" stroke="#1C2738" stroke-width="2.6" marker-end="url(#arrow-ink)"/>
    <path d="M224 644 C280 660 300 698 336 706" class="line" stroke="#1C2738" stroke-width="2.6" marker-end="url(#arrow-ink)"/>

    <!-- UP horn: hold the group whole -> barrier returns -> efficiency lost (execution layer) -->
    <text x="342" y="540" class="t small dark-text">hold the group whole</text>
    <rect x="346" y="552" width="602" height="58" fill="#8B98A8" opacity="0.10"/>
    <path d="M360 570 H548 M360 586 H548 M360 602 H548" class="line" stroke="#2F63D8" stroke-width="4"/>
    <circle cx="548" cy="570" r="5" fill="#2F63D8"/><circle cx="548" cy="586" r="5" fill="#2F63D8"/><circle cx="548" cy="602" r="5" fill="#2F63D8"/>
    <rect x="556" y="556" width="15" height="50" fill="#8B98A8" opacity="0.55"/>
    <path d="M582 570 H930 M582 586 H930 M582 602 H930" class="line" stroke="#8B98A8" stroke-width="2.4" stroke-dasharray="6 7" opacity="0.6"/>
    <circle cx="924" cy="586" r="16" fill="#FFFFFF" stroke="#637185" stroke-width="2.4"/>
    <path d="M924 586 V575 M924 586 H932" class="line" stroke="#637185" stroke-width="2.4"/>
    <text x="982" y="580" class="t small coral-text">&#10007; efficiency lost</text>
    <text x="982" y="604" class="t micro muted">execution layer &#183; the barrier returns</text>

    <!-- DOWN horn: let the stream flow -> expert has no version -> semantics rewritten (theory layer) -->
    <text x="342" y="678" class="t small dark-text">let the stream flow</text>
    <text x="392" y="700" text-anchor="middle" class="t micro blue-text">rollout &#183; v = k</text>
    <path d="M470 704 H556" class="line" stroke="#2F63D8" stroke-width="4"/>
    <text x="392" y="742" text-anchor="middle" class="t micro orange-text">expert &#183; v = &#8869;</text>
    <path d="M470 736 H556" class="line" stroke="#D8891C" stroke-width="4"/>
    <rect x="560" y="694" width="150" height="52" rx="11" fill="#EAF0FC" stroke="#2F63D8" stroke-width="2.2"/>
    <text x="635" y="716" text-anchor="middle" class="t micro blue-text">policy-lag correction</text>
    <text x="635" y="734" text-anchor="middle" class="t micro muted">reads a version</text>
    <path d="M714 704 H812" class="line" stroke="#2F63D8" stroke-width="4"/>
    <path d="M792 698 L800 706 L814 692" class="line" stroke="#2F63D8" stroke-width="3.2"/>
    <path d="M714 736 H792" class="line" stroke="#D8891C" stroke-width="4"/>
    <path d="M804 728 L820 744 M820 728 L804 744" class="line" stroke="#B8433D" stroke-width="3.4"/>
    <text x="852" y="712" class="t small coral-text">&#10007; semantics rewritten</text>
    <text x="852" y="736" class="t micro muted">theory layer &#183; expert has no version to correct</text>
  </g>
</svg>
