<svg xmlns="http://www.w3.org/2000/svg" width="1500" height="600" viewBox="0 0 1500 600" role="img" aria-labelledby="title desc">
  <title id="title">Matched execution efficiency</title>
  <desc id="desc">A same-hardware comparison showing serial synchronous phases versus overlapped StreamWeave execution for 128 prompt groups, alongside throughput, trainer idle, and actor MFU.</desc>
  <metadata>{"figure_id":"figure3_execution_efficiency","status":"provisional_matched_measurement","hardware":"8xB200","work_unit":"128_prompt_groups","timeline_seconds":{"sync":{"generation":24.84,"generation_tail_wait":17.39,"learning":17.48,"parameter_sync":3.68,"total":46},"streamweave":{"total":30}},"metrics":[{"label":"group/s","sync":2.79,"streamweave":4.31,"max":5,"decimals":2},{"label":"idle (%)","sync":54,"streamweave":4.6,"max":60,"decimals":1},{"label":"MFU (%)","sync":13.4,"streamweave":20.9,"max":25,"decimals":1}],"runs":{"sync":"v96fvd0p","streamweave":"f5ugxklh"},"source":"Efficiency.tex, measured 2026-07-09","restrictions":["The async arm is the former M5/CISPO run, not the current nocispo main.","Refresh all visible values after the matched nocispo efficiency rerun.","The figure isolates execution measurements and does not claim quality equivalence."]}</metadata>
  <defs>
    <style>
      .t { font-family: "Helvetica Neue", "Source Sans 3", sans-serif; fill: #1C2738; }
      .panel { font-size: 22px; font-weight: 650; }
      .stage { font-size: 28px; font-weight: 700; letter-spacing: 0.2px; }
      .label { font-size: 24px; font-weight: 600; }
      .small { font-size: 20px; font-weight: 550; }
      .tiny { font-size: 17px; font-weight: 650; }
      .micro { font-size: 14px; font-weight: 650; }
      .value { font-size: 21px; font-weight: 700; }
      .muted { fill: #637185; }
      .line { fill: none; stroke-linecap: round; stroke-linejoin: round; }
    </style>
    <marker id="arrow-ink" markerWidth="8" markerHeight="8" refX="7" refY="4" orient="auto" markerUnits="strokeWidth"><path d="M0,0 L8,4 L0,8 Z" fill="#1C2738"/></marker>
    <marker id="arrow-blue" markerWidth="8" markerHeight="8" refX="7" refY="4" orient="auto" markerUnits="strokeWidth"><path d="M0,0 L8,4 L0,8 Z" fill="#2F63D8"/></marker>
    <marker id="arrow-orange" markerWidth="8" markerHeight="8" refX="7" refY="4" orient="auto" markerUnits="strokeWidth"><path d="M0,0 L8,4 L0,8 Z" fill="#D8891C"/></marker>
    <marker id="arrow-teal" markerWidth="8" markerHeight="8" refX="7" refY="4" orient="auto" markerUnits="strokeWidth"><path d="M0,0 L8,4 L0,8 Z" fill="#138276"/></marker>
    <pattern id="hatch-coral" width="9" height="9" patternUnits="userSpaceOnUse" patternTransform="rotate(30)"><line x1="0" y1="0" x2="0" y2="9" stroke="#D95F59" stroke-width="3"/></pattern>
    
  </defs>
  <rect width="1500" height="600" fill="#FFFFFF"/>
  
  <g id="timeline-panel">
    <text x="34" y="50" class="t panel muted">(a)</text>
    <line x1="205" y1="126" x2="205" y2="420" stroke="#D7E0EA" stroke-width="1"/>
<text x="205" y="452" text-anchor="middle" class="t small muted">0</text>
<line x1="323" y1="126" x2="323" y2="420" stroke="#D7E0EA" stroke-width="1"/>
<text x="323" y="452" text-anchor="middle" class="t small muted">10</text>
<line x1="441" y1="126" x2="441" y2="420" stroke="#D7E0EA" stroke-width="1"/>
<text x="441" y="452" text-anchor="middle" class="t small muted">20</text>
<line x1="559" y1="126" x2="559" y2="420" stroke="#D7E0EA" stroke-width="1"/>
<text x="559" y="452" text-anchor="middle" class="t small muted">30</text>
<line x1="677" y1="126" x2="677" y2="420" stroke="#D7E0EA" stroke-width="1"/>
<text x="677" y="452" text-anchor="middle" class="t small muted">40</text>
<line x1="795" y1="126" x2="795" y2="420" stroke="#D7E0EA" stroke-width="1"/>
<text x="795" y="452" text-anchor="middle" class="t small muted">50</text>
    <line x1="205" y1="420" x2="795" y2="420" stroke="#1C2738" stroke-width="1.5"/>
    <text x="813" y="425" class="t small muted">s</text>

    <text x="175" y="190" text-anchor="end" class="t label">Sync</text>
    <rect x="205" y="160" width="293.112" height="48" rx="8" fill="#D8891C"/>
    <rect x="292.90999999999997" y="160" width="205.20200000000006" height="48" fill="url(#hatch-coral)" opacity="0.95"/>
    <rect x="498.112" y="160" width="206.26399999999995" height="48" fill="#2F63D8"/>
    <rect x="704.376" y="160" width="43.42400000000009" height="48" rx="0 8 8 0" fill="#8B98A8"/>
    <text x="761.8000000000001" y="191" class="t value">46</text>

    <text x="175" y="327" text-anchor="end" class="t label">StreamWeave</text>
    <rect x="205" y="286" width="354" height="34" rx="8" fill="#D8891C" opacity="0.9"/>
    <rect x="205" y="330" width="354" height="34" rx="8" fill="#2F63D8" opacity="0.9"/>
    <text x="573" y="334" class="t value">30</text>

    <g id="timeline-legend">
      <rect x="205" y="512" width="16" height="16" rx="3" fill="#D8891C"/><text x="230" y="525" class="t small muted">generation</text>
      <rect x="345" y="512" width="16" height="16" rx="3" fill="#2F63D8"/><text x="370" y="525" class="t small muted">learning</text>
      <rect x="470" y="512" width="16" height="16" rx="3" fill="#8B98A8"/><text x="495" y="525" class="t small muted">sync</text>
      <rect x="558" y="512" width="16" height="16" fill="url(#hatch-coral)" stroke="#D95F59" stroke-width="1"/><text x="583" y="525" class="t small muted">tail wait</text>
    </g>
  </g>

  <line x1="875" y1="32" x2="875" y2="568" stroke="#D7E0EA" stroke-width="1.2"/>

  <g id="metric-panel">
    <text x="906" y="50" class="t panel muted">(b)</text>
    <g id="metric-legend">
      <path d="M1192 38 L1200 46 L1192 54 L1184 46 Z" fill="#FFFFFF" stroke="#4D5B6C" stroke-width="2.1"/><text x="1210" y="52" class="t small">Sync</text>
      <circle cx="1290" cy="46" r="8" fill="#138276"/><text x="1307" y="52" class="t small">StreamWeave</text>
    </g>
    <g id="metric-1">
      <text x="965" y="166" text-anchor="end" class="t label">group/s</text>
      <line x1="1005" y1="160" x2="1430" y2="160" stroke="#D7E0EA" stroke-width="2"/>
      <line x1="1242.15" y1="160" x2="1371.35" y2="160" stroke="#138276" stroke-width="3"/>
      <path d="M1242.15 151 L1251.15 160 L1242.15 169 L1233.15 160 Z" fill="#FFFFFF" stroke="#4D5B6C" stroke-width="2.3"/>
      <circle cx="1371.35" cy="160" r="9" fill="#138276" stroke="#FFFFFF" stroke-width="2"/>
      <text x="1242.15" y="140" text-anchor="middle" class="t value" fill="#4D5B6C">2.79</text>
      <text x="1371.35" y="189" text-anchor="middle" class="t value" fill="#138276">4.31</text>
    </g>
<g id="metric-2">
      <text x="965" y="306" text-anchor="end" class="t label">idle (%)</text>
      <line x1="1005" y1="300" x2="1430" y2="300" stroke="#D7E0EA" stroke-width="2"/>
      <line x1="1037.5833333333333" y1="300" x2="1387.5" y2="300" stroke="#138276" stroke-width="3"/>
      <path d="M1387.5 291 L1396.5 300 L1387.5 309 L1378.5 300 Z" fill="#FFFFFF" stroke="#4D5B6C" stroke-width="2.3"/>
      <circle cx="1037.5833333333333" cy="300" r="9" fill="#138276" stroke="#FFFFFF" stroke-width="2"/>
      <text x="1387.5" y="280" text-anchor="middle" class="t value" fill="#4D5B6C">54.0</text>
      <text x="1037.5833333333333" y="329" text-anchor="middle" class="t value" fill="#138276">4.6</text>
    </g>
<g id="metric-3">
      <text x="965" y="446" text-anchor="end" class="t label">MFU (%)</text>
      <line x1="1005" y1="440" x2="1430" y2="440" stroke="#D7E0EA" stroke-width="2"/>
      <line x1="1232.8" y1="440" x2="1360.3" y2="440" stroke="#138276" stroke-width="3"/>
      <path d="M1232.8 431 L1241.8 440 L1232.8 449 L1223.8 440 Z" fill="#FFFFFF" stroke="#4D5B6C" stroke-width="2.3"/>
      <circle cx="1360.3" cy="440" r="9" fill="#138276" stroke="#FFFFFF" stroke-width="2"/>
      <text x="1232.8" y="420" text-anchor="middle" class="t value" fill="#4D5B6C">13.4</text>
      <text x="1360.3" y="469" text-anchor="middle" class="t value" fill="#138276">20.9</text>
    </g>
  </g>
</svg>
